# Blender v2.78 (sub 0) OBJ File: 'UNITY.blend'
# www.blender.org
mtllib UNITY.mtl
o Unity_Mesh
v -1.738285 0.100000 -1.937209
v -0.947950 0.100000 -1.937671
v -0.578319 0.100000 -2.609042
v 1.986467 0.100000 -3.272869
v 2.657838 0.100000 -0.723169
v 2.258033 0.100000 -0.059342
v 2.657838 0.100000 0.604485
v 1.960065 0.100000 3.159213
v -0.583599 0.100000 2.471247
v -0.954739 0.100000 1.802894
v -1.733227 0.100000 1.810437
v -3.597977 0.100000 -0.081470
v -0.046732 0.100000 -0.377174
v 1.063837 0.100000 -2.357340
v -0.932044 0.100000 -1.849202
v -2.352516 0.100000 -0.377174
v -2.267870 0.100000 -0.377174
v 0.939425 0.100000 1.985616
v 0.844602 0.100000 1.830270
v 0.751774 0.100000 1.673802
v 0.660609 0.100000 1.516401
v 0.570774 0.100000 1.358252
v 0.481936 0.100000 1.199544
v 0.393764 0.100000 1.040461
v 0.305925 0.100000 0.881192
v 0.218085 0.100000 0.721923
v 0.129913 0.100000 0.562841
v 0.041075 0.100000 0.404132
v -0.048760 0.100000 0.245984
v -2.362389 0.100000 0.239910
v -0.932477 0.100000 1.721665
v -0.765354 0.100000 1.763095
v -0.598901 0.100000 1.805251
v -0.432894 0.100000 1.847888
v -0.267110 0.100000 1.890768
v -0.101326 0.100000 1.933647
v 0.064681 0.100000 1.976285
v 0.231135 0.100000 2.018440
v 0.398258 0.100000 2.059871
v 0.566274 0.100000 2.100336
v 0.735406 0.100000 2.139594
v 0.905878 0.100000 2.177403
v 1.077912 0.100000 2.213522
v 1.036576 0.100000 2.139656
v 1.463660 0.100000 -1.802128
v 1.364789 0.100000 -1.643413
v 1.268687 0.100000 -1.485330
v 1.174891 0.100000 -1.327775
v 1.082940 0.100000 -1.170641
v 0.992373 0.100000 -1.013824
v 0.902730 0.100000 -0.857218
v 0.813547 0.100000 -0.700717
v 0.724365 0.100000 -0.544217
v 0.634721 0.100000 -0.387610
v 0.544154 0.100000 -0.230793
v 0.452204 0.100000 -0.073660
v 1.616259 0.100000 1.926931
v 2.178380 0.100000 -0.067726
v 2.129683 0.100000 -0.231541
v 2.079294 0.100000 -0.395040
v 2.027777 0.100000 -0.558327
v 1.975697 0.100000 -0.721509
v 1.923616 0.100000 -0.884692
v 1.872099 0.100000 -1.047979
v 1.821710 0.100000 -1.211478
v 1.773013 0.100000 -1.375293
v 1.726571 0.100000 -1.539529
v 1.682948 0.100000 -1.704293
v 1.642709 0.100000 -1.869690
v 1.606416 0.100000 -2.035825
v 1.565761 0.100000 -1.961581
v -1.738285 -0.100000 -1.937209
v -0.947950 -0.100000 -1.937671
v -0.578319 -0.100000 -2.609042
v 1.986467 -0.100000 -3.272869
v 2.657838 -0.100000 -0.723169
v 2.258033 -0.100000 -0.059342
v 2.657838 -0.100000 0.604485
v 1.960065 -0.100000 3.159213
v -0.583599 -0.100000 2.471247
v -0.954739 -0.100000 1.802894
v -1.733227 -0.100000 1.810437
v -3.597977 -0.100000 -0.081470
v -0.046732 -0.100000 -0.377174
v 1.063837 -0.100000 -2.357340
v -0.932044 -0.100000 -1.849202
v -2.352516 -0.100000 -0.377174
v -2.267870 -0.100000 -0.377174
v 0.939425 -0.100000 1.985616
v 0.844602 -0.100000 1.830270
v 0.751774 -0.100000 1.673802
v 0.660609 -0.100000 1.516401
v 0.570774 -0.100000 1.358252
v 0.481936 -0.100000 1.199544
v 0.393764 -0.100000 1.040461
v 0.305925 -0.100000 0.881192
v 0.218085 -0.100000 0.721923
v 0.129913 -0.100000 0.562841
v 0.041075 -0.100000 0.404132
v -0.048760 -0.100000 0.245984
v -2.362389 -0.100000 0.239910
v -0.932477 -0.100000 1.721665
v -0.765354 -0.100000 1.763095
v -0.598901 -0.100000 1.805251
v -0.432894 -0.100000 1.847888
v -0.267110 -0.100000 1.890768
v -0.101326 -0.100000 1.933647
v 0.064681 -0.100000 1.976285
v 0.231135 -0.100000 2.018440
v 0.398258 -0.100000 2.059871
v 0.566274 -0.100000 2.100336
v 0.735406 -0.100000 2.139594
v 0.905878 -0.100000 2.177403
v 1.077912 -0.100000 2.213522
v 1.036576 -0.100000 2.139656
v 1.463660 -0.100000 -1.802128
v 1.364789 -0.100000 -1.643413
v 1.268687 -0.100000 -1.485330
v 1.174891 -0.100000 -1.327775
v 1.082940 -0.100000 -1.170641
v 0.992373 -0.100000 -1.013824
v 0.902730 -0.100000 -0.857218
v 0.813547 -0.100000 -0.700717
v 0.724365 -0.100000 -0.544217
v 0.634721 -0.100000 -0.387610
v 0.544154 -0.100000 -0.230793
v 0.452204 -0.100000 -0.073660
v 1.616259 -0.100000 1.926931
v 2.178380 -0.100000 -0.067726
v 2.129683 -0.100000 -0.231541
v 2.079294 -0.100000 -0.395040
v 2.027777 -0.100000 -0.558327
v 1.975697 -0.100000 -0.721509
v 1.923616 -0.100000 -0.884692
v 1.872099 -0.100000 -1.047979
v 1.821710 -0.100000 -1.211478
v 1.773013 -0.100000 -1.375293
v 1.726571 -0.100000 -1.539529
v 1.682948 -0.100000 -1.704293
v 1.642709 -0.100000 -1.869690
v 1.606416 -0.100000 -2.035825
v 1.565761 -0.100000 -1.961581
v -1.738285 -0.100000 -1.937209
v -1.738285 0.100000 -1.937209
v -0.947950 -0.100000 -1.937671
v -0.947950 0.100000 -1.937671
v -0.578319 -0.100000 -2.609042
v -0.578319 0.100000 -2.609042
v 1.986467 -0.100000 -3.272869
v 1.986467 0.100000 -3.272869
v 2.657838 -0.100000 -0.723169
v 2.657838 0.100000 -0.723169
v 2.258033 -0.100000 -0.059342
v 2.258033 0.100000 -0.059342
v 2.657838 -0.100000 0.604485
v 2.657838 0.100000 0.604485
v 1.960065 -0.100000 3.159213
v 1.960065 0.100000 3.159213
v -0.583599 -0.100000 2.471247
v -0.583599 0.100000 2.471247
v -0.954739 -0.100000 1.802894
v -0.954739 0.100000 1.802894
v -1.733227 -0.100000 1.810437
v -1.733227 0.100000 1.810437
v -3.597977 -0.100000 -0.081470
v -3.597977 0.100000 -0.081470
v -0.046732 -0.100000 -0.377174
v -0.046732 0.100000 -0.377174
v 1.063837 -0.100000 -2.357340
v 1.063837 0.100000 -2.357340
v -0.932044 -0.100000 -1.849202
v -0.932044 0.100000 -1.849202
v -2.352516 -0.100000 -0.377174
v -2.352516 0.100000 -0.377174
v -2.267870 -0.100000 -0.377174
v -2.267870 0.100000 -0.377174
v 0.939425 -0.100000 1.985616
v 0.939425 0.100000 1.985616
v 0.844602 -0.100000 1.830270
v 0.844602 0.100000 1.830270
v 0.751774 -0.100000 1.673802
v 0.751774 0.100000 1.673802
v 0.660609 -0.100000 1.516401
v 0.660609 0.100000 1.516401
v 0.570774 -0.100000 1.358252
v 0.570774 0.100000 1.358252
v 0.481936 -0.100000 1.199544
v 0.481936 0.100000 1.199544
v 0.393764 -0.100000 1.040461
v 0.393764 0.100000 1.040461
v 0.305925 -0.100000 0.881192
v 0.305925 0.100000 0.881192
v 0.218085 -0.100000 0.721923
v 0.218085 0.100000 0.721923
v 0.129913 -0.100000 0.562841
v 0.129913 0.100000 0.562841
v 0.041075 -0.100000 0.404132
v 0.041075 0.100000 0.404132
v -0.048760 -0.100000 0.245984
v -0.048760 0.100000 0.245984
v -2.362389 -0.100000 0.239910
v -2.362389 0.100000 0.239910
v -0.932477 -0.100000 1.721665
v -0.932477 0.100000 1.721665
v -0.765354 -0.100000 1.763095
v -0.765354 0.100000 1.763095
v -0.598901 -0.100000 1.805251
v -0.598901 0.100000 1.805251
v -0.432894 -0.100000 1.847888
v -0.432894 0.100000 1.847888
v -0.267110 -0.100000 1.890768
v -0.267110 0.100000 1.890768
v -0.101326 -0.100000 1.933647
v -0.101326 0.100000 1.933647
v 0.064681 -0.100000 1.976285
v 0.064681 0.100000 1.976285
v 0.231135 -0.100000 2.018440
v 0.231135 0.100000 2.018440
v 0.398258 -0.100000 2.059871
v 0.398258 0.100000 2.059871
v 0.566274 -0.100000 2.100336
v 0.566274 0.100000 2.100336
v 0.735406 -0.100000 2.139594
v 0.735406 0.100000 2.139594
v 0.905878 -0.100000 2.177403
v 0.905878 0.100000 2.177403
v 1.077912 -0.100000 2.213522
v 1.077912 0.100000 2.213522
v 1.036576 -0.100000 2.139656
v 1.036576 0.100000 2.139656
v 1.463660 -0.100000 -1.802128
v 1.463660 0.100000 -1.802128
v 1.364789 -0.100000 -1.643413
v 1.364789 0.100000 -1.643413
v 1.268687 -0.100000 -1.485330
v 1.268687 0.100000 -1.485330
v 1.174891 -0.100000 -1.327775
v 1.174891 0.100000 -1.327775
v 1.082940 -0.100000 -1.170641
v 1.082940 0.100000 -1.170641
v 0.992373 -0.100000 -1.013824
v 0.992373 0.100000 -1.013824
v 0.902730 -0.100000 -0.857218
v 0.902730 0.100000 -0.857218
v 0.813547 -0.100000 -0.700717
v 0.813547 0.100000 -0.700717
v 0.724365 -0.100000 -0.544217
v 0.724365 0.100000 -0.544217
v 0.634721 -0.100000 -0.387610
v 0.634721 0.100000 -0.387610
v 0.544154 -0.100000 -0.230793
v 0.544154 0.100000 -0.230793
v 0.452204 -0.100000 -0.073660
v 0.452204 0.100000 -0.073660
v 1.616259 -0.100000 1.926931
v 1.616259 0.100000 1.926931
v 2.178380 -0.100000 -0.067726
v 2.178380 0.100000 -0.067726
v 2.129683 -0.100000 -0.231541
v 2.129683 0.100000 -0.231541
v 2.079294 -0.100000 -0.395040
v 2.079294 0.100000 -0.395040
v 2.027777 -0.100000 -0.558327
v 2.027777 0.100000 -0.558327
v 1.975697 -0.100000 -0.721509
v 1.975697 0.100000 -0.721509
v 1.923616 -0.100000 -0.884692
v 1.923616 0.100000 -0.884692
v 1.872099 -0.100000 -1.047979
v 1.872099 0.100000 -1.047979
v 1.821710 -0.100000 -1.211478
v 1.821710 0.100000 -1.211478
v 1.773013 -0.100000 -1.375293
v 1.773013 0.100000 -1.375293
v 1.726571 -0.100000 -1.539529
v 1.726571 0.100000 -1.539529
v 1.682948 -0.100000 -1.704293
v 1.682948 0.100000 -1.704293
v 1.642709 -0.100000 -1.869690
v 1.642709 0.100000 -1.869690
v 1.606416 -0.100000 -2.035825
v 1.606416 0.100000 -2.035825
v 1.565761 -0.100000 -1.961581
v 1.565761 0.100000 -1.961581
vt 0.6808 0.4934
vt 0.8135 0.5125
vt 0.8657 0.6258
vt 0.8624 0.4957
vt 0.9719 0.3961
vt 0.6663 0.4184
vt 0.6694 0.4102
vt 0.7693 0.2908
vt 0.8609 0.4874
vt 0.8688 0.4805
vt 0.8563 0.4692
vt 0.6050 0.3974
vt 0.5000 0.1679
vt 0.8754 0.4655
vt 0.5904 0.2296
vt 0.8520 0.4511
vt 0.8823 0.4507
vt 0.8479 0.4333
vt 0.8894 0.4359
vt 0.8440 0.4155
vt 0.8966 0.4213
vt 0.8402 0.3978
vt 0.9040 0.4068
vt 0.8365 0.3801
vt 0.9115 0.3923
vt 0.8328 0.3626
vt 0.9190 0.3778
vt 0.8292 0.3450
vt 0.9549 0.3210
vt 0.9265 0.3634
vt 0.8256 0.3274
vt 0.9339 0.3489
vt 0.8220 0.3099
vt 0.9413 0.3344
vt 0.8183 0.2922
vt 0.5970 0.2319
vt 0.9485 0.3197
vt 0.8145 0.2745
vt 0.6848 0.0337
vt 0.6027 0.1695
vt 0.7824 0.2302
vt 0.9472 0.1112
vt 1.0000 0.2672
vt 0.7451 0.0635
vt 0.7927 0.2173
vt 0.8029 0.2042
vt 0.8132 0.1911
vt 1.0000 0.0007
vt 0.8234 0.1780
vt 0.8335 0.1648
vt 0.8438 0.1517
vt 0.8540 0.1387
vt 0.8643 0.1257
vt 0.8748 0.1128
vt 0.8853 0.1001
vt 0.7589 0.0639
vt 0.7451 0.0550
vt 0.7727 0.0643
vt 0.7880 0.0000
vt 0.7865 0.0645
vt 0.8959 0.0875
vt 0.8003 0.0647
vt 0.8141 0.0650
vt 0.8278 0.0652
vt 0.8417 0.0656
vt 0.9067 0.0752
vt 0.8555 0.0660
vt 0.8694 0.0665
vt 0.8834 0.0672
vt 0.8974 0.0680
vt 0.9115 0.0691
vt 0.3135 0.1134
vt 0.1808 0.1325
vt 0.3657 0.0000
vt 0.3624 0.1302
vt 0.4719 0.2297
vt 0.1663 0.2074
vt 0.1694 0.2156
vt 0.2693 0.3350
vt 0.3609 0.1385
vt 0.3688 0.1453
vt 0.3563 0.1567
vt 0.1050 0.2284
vt 0.0000 0.4579
vt 0.3754 0.1603
vt 0.0904 0.3962
vt 0.3520 0.1747
vt 0.3823 0.1752
vt 0.3479 0.1926
vt 0.3894 0.1899
vt 0.3440 0.2104
vt 0.3966 0.2045
vt 0.3402 0.2281
vt 0.4040 0.2190
vt 0.3365 0.2457
vt 0.4115 0.2335
vt 0.3328 0.2633
vt 0.4190 0.2480
vt 0.3292 0.2808
vt 0.4549 0.3048
vt 0.4265 0.2625
vt 0.3256 0.2984
vt 0.4339 0.2769
vt 0.3220 0.3160
vt 0.4413 0.2915
vt 0.3183 0.3336
vt 0.0970 0.3939
vt 0.4485 0.3061
vt 0.3145 0.3513
vt 0.1027 0.4564
vt 0.1848 0.5922
vt 0.2824 0.3956
vt 0.4472 0.5147
vt 0.5000 0.3586
vt 0.2451 0.5623
vt 0.2927 0.4086
vt 0.3029 0.4216
vt 0.3132 0.4347
vt 0.5000 0.6252
vt 0.3234 0.4479
vt 0.3335 0.4610
vt 0.3438 0.4741
vt 0.3540 0.4872
vt 0.3643 0.5001
vt 0.3748 0.5130
vt 0.3853 0.5257
vt 0.2589 0.5619
vt 0.2451 0.5708
vt 0.2727 0.5616
vt 0.2880 0.6258
vt 0.2865 0.5613
vt 0.3959 0.5383
vt 0.3003 0.5611
vt 0.3141 0.5608
vt 0.3278 0.5606
vt 0.3417 0.5603
vt 0.4067 0.5507
vt 0.3555 0.5599
vt 0.3694 0.5593
vt 0.3834 0.5587
vt 0.3974 0.5578
vt 0.4115 0.5568
vt 0.1287 0.7043
vt 0.1287 0.6258
vt 0.1448 0.6258
vt 0.1448 0.7043
vt 0.2574 0.6722
vt 0.2574 0.6258
vt 0.2735 0.6258
vt 0.2735 0.6722
vt 0.1126 0.8695
vt 0.1126 0.6258
vt 0.1287 0.6258
vt 0.1287 0.8695
vt 0.0644 0.6258
vt 0.0644 0.8132
vt 0.0483 0.8132
vt 0.0483 0.6258
vt 0.0644 0.8912
vt 0.0483 0.8912
vt 0.2413 0.6765
vt 0.2413 0.6258
vt 0.2574 0.6258
vt 0.2574 0.6765
vt 0.0644 0.8832
vt 0.0644 0.6258
vt 0.0804 0.6258
vt 0.0804 0.8832
vt 0.0965 0.8708
vt 0.0965 0.7025
vt 0.1126 0.7025
vt 0.1126 0.8708
vt 0.0965 0.6258
vt 0.1126 0.6258
vt 0.2735 0.6661
vt 0.2735 0.6258
vt 0.2896 0.6258
vt 0.2896 0.6661
vt 0.0804 0.8765
vt 0.0804 0.6258
vt 0.0965 0.6258
vt 0.0965 0.8765
vt 0.1287 0.8582
vt 0.1448 0.8582
vt 0.2092 0.7616
vt 0.2092 0.6258
vt 0.2252 0.6258
vt 0.2252 0.7616
vt 0.0483 0.6258
vt 0.0483 0.7714
vt 0.0322 0.7714
vt 0.0322 0.6258
vt 0.0483 0.9715
vt 0.0322 0.9715
vt 0.1609 0.8547
vt 0.1609 0.8463
vt 0.1770 0.8463
vt 0.1770 0.8547
vt 0.1609 0.6258
vt 0.1770 0.6258
vt 0.1770 0.8263
vt 0.1770 0.8081
vt 0.1931 0.8081
vt 0.1931 0.8263
vt 0.1770 0.7899
vt 0.1931 0.7899
vt 0.1770 0.7717
vt 0.1931 0.7717
vt 0.1770 0.7535
vt 0.1931 0.7535
vt 0.1770 0.7353
vt 0.1931 0.7353
vt 0.1770 0.7170
vt 0.1931 0.7170
vt 0.1770 0.6988
vt 0.1931 0.6988
vt 0.1770 0.6805
vt 0.1931 0.6805
vt 0.1770 0.6623
vt 0.1931 0.6623
vt 0.1770 0.6441
vt 0.1931 0.6441
vt 0.1770 0.6258
vt 0.1931 0.6258
vt 0.2252 0.7429
vt 0.2252 0.6258
vt 0.2413 0.6258
vt 0.2413 0.7429
vt 0.0000 1.0000
vt 0.0000 0.8335
vt 0.0161 0.8335
vt 0.0161 1.0000
vt 0.0000 0.8163
vt 0.0161 0.8163
vt 0.0000 0.7990
vt 0.0161 0.7990
vt 0.0000 0.7819
vt 0.0161 0.7819
vt 0.0000 0.7647
vt 0.0161 0.7647
vt 0.0000 0.7475
vt 0.0161 0.7475
vt 0.0000 0.7303
vt 0.0161 0.7303
vt 0.0000 0.7131
vt 0.0161 0.7131
vt 0.0000 0.6958
vt 0.0161 0.6958
vt 0.0000 0.6785
vt 0.0161 0.6785
vt 0.0000 0.6611
vt 0.0161 0.6611
vt 0.0000 0.6435
vt 0.0161 0.6435
vt 0.0000 0.6258
vt 0.0161 0.6258
vt 0.1770 0.8530
vt 0.1770 0.8445
vt 0.1931 0.8445
vt 0.1931 0.8530
vt 0.1448 0.8274
vt 0.1448 0.8086
vt 0.1609 0.8086
vt 0.1609 0.8274
vt 0.1448 0.7900
vt 0.1609 0.7900
vt 0.1448 0.7715
vt 0.1609 0.7715
vt 0.1448 0.7532
vt 0.1609 0.7532
vt 0.1448 0.7350
vt 0.1609 0.7350
vt 0.1448 0.7168
vt 0.1609 0.7168
vt 0.1448 0.6987
vt 0.1609 0.6987
vt 0.1448 0.6805
vt 0.1609 0.6805
vt 0.1448 0.6624
vt 0.1609 0.6624
vt 0.1448 0.6442
vt 0.1609 0.6442
vt 0.1448 0.6258
vt 0.1609 0.6258
vt 0.1931 0.7745
vt 0.1931 0.6258
vt 0.2092 0.6258
vt 0.2092 0.7745
vt 0.0161 0.9899
vt 0.0161 0.8301
vt 0.0322 0.8301
vt 0.0322 0.9899
vt 0.0161 0.8130
vt 0.0322 0.8130
vt 0.0161 0.7959
vt 0.0322 0.7959
vt 0.0161 0.7788
vt 0.0322 0.7788
vt 0.0161 0.7617
vt 0.0322 0.7617
vt 0.0161 0.7446
vt 0.0322 0.7446
vt 0.0161 0.7275
vt 0.0322 0.7275
vt 0.0161 0.7104
vt 0.0322 0.7104
vt 0.0161 0.6933
vt 0.0322 0.6933
vt 0.0161 0.6763
vt 0.0322 0.6763
vt 0.0161 0.6594
vt 0.0322 0.6594
vt 0.0161 0.6426
vt 0.0322 0.6426
vt 0.0161 0.6258
vt 0.0322 0.6258
vt 0.1448 0.8549
vt 0.1448 0.8464
vt 0.1609 0.8464
vt 0.1609 0.8549
vn 0.0000 1.0000 -0.0000
vn 0.0000 -1.0000 -0.0000
vn -0.3825 0.0000 -0.9239
vn -0.5090 0.0000 -0.8607
vn -0.6134 0.0000 -0.7897
vn 0.5055 0.0000 -0.8628
vn 0.9899 0.0000 0.1418
vn 1.0000 0.0000 0.0000
vn 0.9905 0.0000 -0.1373
vn 0.4969 0.0000 0.8678
vn -0.6163 0.0000 0.7875
vn -0.5030 0.0000 0.8643
vn -0.3815 0.0000 0.9243
vn -1.0000 0.0000 -0.0041
vn -0.5054 0.0000 -0.8629
vn -0.7934 0.0000 0.6087
vn 0.5023 0.0000 0.8647
vn 0.9204 0.0000 -0.3909
vn 0.0000 0.0000 -1.0000
vn -0.8497 0.0000 0.5272
vn -0.8568 0.0000 0.5156
vn -0.8627 0.0000 0.5057
vn -0.8674 0.0000 0.4975
vn -0.8710 0.0000 0.4912
vn -0.8736 0.0000 0.4866
vn -0.8751 0.0000 0.4838
vn -0.8756 0.0000 0.4829
vn -0.5042 0.0000 0.8636
vn 0.9199 0.0000 0.3921
vn 0.4996 0.0000 -0.8663
vn 0.2430 0.0000 -0.9700
vn 0.2471 0.0000 -0.9690
vn 0.2496 0.0000 -0.9683
vn 0.2504 0.0000 -0.9681
vn 0.2374 0.0000 -0.9714
vn 0.2301 0.0000 -0.9731
vn 0.2213 0.0000 -0.9752
vn 0.2110 0.0000 -0.9775
vn -0.8058 0.0000 -0.5922
vn -0.8595 0.0000 0.5111
vn 0.8455 0.0000 0.5340
vn 0.8516 0.0000 0.5241
vn 0.8569 0.0000 0.5155
vn 0.8612 0.0000 0.5083
vn 0.8645 0.0000 0.5026
vn 0.8669 0.0000 0.4984
vn 0.8683 0.0000 0.4959
vn 0.8688 0.0000 0.4951
vn 1.0000 0.0000 0.0012
vn -0.1258 0.0000 -0.9920
vn -1.0000 0.0000 0.0071
vn -0.9571 0.0000 0.2897
vn -0.9546 0.0000 0.2977
vn -0.9532 0.0000 0.3024
vn -0.9526 0.0000 0.3040
vn -0.9604 0.0000 0.2785
vn -0.9645 0.0000 0.2640
vn -0.9692 0.0000 0.2462
vn -0.9744 0.0000 0.2249
vn -0.1425 0.0000 0.9898
vn 0.8601 0.0000 0.5101
usemtl Matériau
s off
f 3/1/1 14/2/1 4/3/1
f 14/2/1 70/4/1 4/3/1
f 70/4/1 5/5/1 4/3/1
f 2/6/1 14/2/1 3/1/1
f 2/6/1 15/7/1 14/2/1
f 13/8/1 70/4/1 14/2/1
f 13/8/1 71/9/1 70/4/1
f 69/10/1 5/5/1 70/4/1
f 13/8/1 45/11/1 71/9/1
f 1/12/1 15/7/1 2/6/1
f 12/13/1 15/7/1 1/12/1
f 68/14/1 5/5/1 69/10/1
f 12/13/1 16/15/1 15/7/1
f 13/8/1 46/16/1 45/11/1
f 67/17/1 5/5/1 68/14/1
f 13/8/1 47/18/1 46/16/1
f 66/19/1 5/5/1 67/17/1
f 13/8/1 48/20/1 47/18/1
f 65/21/1 5/5/1 66/19/1
f 13/8/1 49/22/1 48/20/1
f 64/23/1 5/5/1 65/21/1
f 13/8/1 50/24/1 49/22/1
f 63/25/1 5/5/1 64/23/1
f 13/8/1 51/26/1 50/24/1
f 62/27/1 5/5/1 63/25/1
f 13/8/1 52/28/1 51/26/1
f 62/27/1 6/29/1 5/5/1
f 61/30/1 6/29/1 62/27/1
f 13/8/1 53/31/1 52/28/1
f 60/32/1 6/29/1 61/30/1
f 13/8/1 54/33/1 53/31/1
f 59/34/1 6/29/1 60/32/1
f 13/8/1 55/35/1 54/33/1
f 12/13/1 17/36/1 16/15/1
f 12/13/1 13/8/1 17/36/1
f 12/13/1 55/35/1 13/8/1
f 58/37/1 6/29/1 59/34/1
f 12/13/1 56/38/1 55/35/1
f 11/39/1 30/40/1 12/13/1
f 30/40/1 56/38/1 12/13/1
f 30/40/1 29/41/1 56/38/1
f 29/41/1 57/42/1 56/38/1
f 57/42/1 6/29/1 58/37/1
f 57/42/1 7/43/1 6/29/1
f 11/39/1 31/44/1 30/40/1
f 28/45/1 57/42/1 29/41/1
f 27/46/1 57/42/1 28/45/1
f 26/47/1 57/42/1 27/46/1
f 57/42/1 8/48/1 7/43/1
f 25/49/1 57/42/1 26/47/1
f 24/50/1 57/42/1 25/49/1
f 23/51/1 57/42/1 24/50/1
f 22/52/1 57/42/1 23/51/1
f 21/53/1 57/42/1 22/52/1
f 20/54/1 57/42/1 21/53/1
f 19/55/1 57/42/1 20/54/1
f 11/39/1 32/56/1 31/44/1
f 11/39/1 10/57/1 32/56/1
f 10/57/1 33/58/1 32/56/1
f 9/59/1 33/58/1 10/57/1
f 9/59/1 34/60/1 33/58/1
f 18/61/1 57/42/1 19/55/1
f 9/59/1 35/62/1 34/60/1
f 9/59/1 36/63/1 35/62/1
f 18/61/1 8/48/1 57/42/1
f 9/59/1 37/64/1 36/63/1
f 9/59/1 38/65/1 37/64/1
f 44/66/1 8/48/1 18/61/1
f 9/59/1 39/67/1 38/65/1
f 9/59/1 40/68/1 39/67/1
f 9/59/1 41/69/1 40/68/1
f 9/59/1 42/70/1 41/69/1
f 43/71/1 8/48/1 44/66/1
f 9/59/1 43/71/1 42/70/1
f 9/59/1 8/48/1 43/71/1
f 85/72/2 74/73/2 75/74/2
f 141/75/2 85/72/2 75/74/2
f 76/76/2 141/75/2 75/74/2
f 85/72/2 73/77/2 74/73/2
f 86/78/2 73/77/2 85/72/2
f 141/75/2 84/79/2 85/72/2
f 142/80/2 84/79/2 141/75/2
f 76/76/2 140/81/2 141/75/2
f 116/82/2 84/79/2 142/80/2
f 86/78/2 72/83/2 73/77/2
f 86/78/2 83/84/2 72/83/2
f 76/76/2 139/85/2 140/81/2
f 87/86/2 83/84/2 86/78/2
f 117/87/2 84/79/2 116/82/2
f 76/76/2 138/88/2 139/85/2
f 118/89/2 84/79/2 117/87/2
f 76/76/2 137/90/2 138/88/2
f 119/91/2 84/79/2 118/89/2
f 76/76/2 136/92/2 137/90/2
f 120/93/2 84/79/2 119/91/2
f 76/76/2 135/94/2 136/92/2
f 121/95/2 84/79/2 120/93/2
f 76/76/2 134/96/2 135/94/2
f 122/97/2 84/79/2 121/95/2
f 76/76/2 133/98/2 134/96/2
f 123/99/2 84/79/2 122/97/2
f 77/100/2 133/98/2 76/76/2
f 77/100/2 132/101/2 133/98/2
f 124/102/2 84/79/2 123/99/2
f 77/100/2 131/103/2 132/101/2
f 125/104/2 84/79/2 124/102/2
f 77/100/2 130/105/2 131/103/2
f 126/106/2 84/79/2 125/104/2
f 88/107/2 83/84/2 87/86/2
f 84/79/2 83/84/2 88/107/2
f 126/106/2 83/84/2 84/79/2
f 77/100/2 129/108/2 130/105/2
f 127/109/2 83/84/2 126/106/2
f 101/110/2 82/111/2 83/84/2
f 127/109/2 101/110/2 83/84/2
f 100/112/2 101/110/2 127/109/2
f 128/113/2 100/112/2 127/109/2
f 77/100/2 128/113/2 129/108/2
f 78/114/2 128/113/2 77/100/2
f 102/115/2 82/111/2 101/110/2
f 128/113/2 99/116/2 100/112/2
f 128/113/2 98/117/2 99/116/2
f 128/113/2 97/118/2 98/117/2
f 79/119/2 128/113/2 78/114/2
f 128/113/2 96/120/2 97/118/2
f 128/113/2 95/121/2 96/120/2
f 128/113/2 94/122/2 95/121/2
f 128/113/2 93/123/2 94/122/2
f 128/113/2 92/124/2 93/123/2
f 128/113/2 91/125/2 92/124/2
f 128/113/2 90/126/2 91/125/2
f 103/127/2 82/111/2 102/115/2
f 81/128/2 82/111/2 103/127/2
f 104/129/2 81/128/2 103/127/2
f 104/129/2 80/130/2 81/128/2
f 105/131/2 80/130/2 104/129/2
f 128/113/2 89/132/2 90/126/2
f 106/133/2 80/130/2 105/131/2
f 107/134/2 80/130/2 106/133/2
f 79/119/2 89/132/2 128/113/2
f 108/135/2 80/130/2 107/134/2
f 109/136/2 80/130/2 108/135/2
f 79/119/2 115/137/2 89/132/2
f 110/138/2 80/130/2 109/136/2
f 111/139/2 80/130/2 110/138/2
f 112/140/2 80/130/2 111/139/2
f 113/141/2 80/130/2 112/140/2
f 79/119/2 114/142/2 115/137/2
f 114/142/2 80/130/2 113/141/2
f 79/119/2 80/130/2 114/142/2
s 1
f 144/143/3 146/144/4 145/145/4 143/146/3
f 146/147/4 148/148/5 147/149/5 145/150/4
f 148/151/5 150/152/6 149/153/6 147/154/5
f 150/155/6 152/156/7 151/157/7 149/158/6
f 152/156/7 154/159/8 153/160/8 151/157/7
f 154/161/8 156/162/9 155/163/9 153/164/8
f 156/165/9 158/166/10 157/167/10 155/168/9
f 158/169/10 160/170/11 159/171/11 157/172/10
f 160/170/11 162/173/12 161/174/12 159/171/11
f 162/175/12 164/176/13 163/177/13 161/178/12
f 164/179/13 166/180/14 165/181/14 163/182/13
f 166/183/14 144/143/3 143/146/3 165/184/14
f 168/185/15 170/186/16 169/187/16 167/188/15
f 170/189/16 172/190/17 171/191/17 169/192/16
f 172/190/17 174/193/18 173/194/18 171/191/17
f 174/195/18 176/196/19 175/197/19 173/198/18
f 176/196/19 168/199/15 167/200/15 175/197/19
f 178/201/20 180/202/21 179/203/21 177/204/20
f 180/202/21 182/205/22 181/206/22 179/203/21
f 182/205/22 184/207/23 183/208/23 181/206/22
f 184/207/23 186/209/24 185/210/24 183/208/23
f 186/209/24 188/211/25 187/212/25 185/210/24
f 188/211/25 190/213/26 189/214/26 187/212/25
f 190/213/26 192/215/27 191/216/27 189/214/26
f 192/215/27 194/217/26 193/218/26 191/216/27
f 194/217/26 196/219/25 195/220/25 193/218/26
f 196/219/25 198/221/24 197/222/24 195/220/25
f 198/221/24 200/223/28 199/224/28 197/222/24
f 200/225/28 202/226/29 201/227/29 199/228/28
f 202/229/29 204/230/30 203/231/30 201/232/29
f 204/230/30 206/233/31 205/234/31 203/231/30
f 206/233/31 208/235/32 207/236/32 205/234/31
f 208/235/32 210/237/33 209/238/33 207/236/32
f 210/237/33 212/239/34 211/240/34 209/238/33
f 212/239/34 214/241/33 213/242/33 211/240/34
f 214/241/33 216/243/32 215/244/32 213/242/33
f 216/243/32 218/245/31 217/246/31 215/244/32
f 218/245/31 220/247/35 219/248/35 217/246/31
f 220/247/35 222/249/36 221/250/36 219/248/35
f 222/249/36 224/251/37 223/252/37 221/250/36
f 224/251/37 226/253/38 225/254/38 223/252/37
f 226/253/38 228/255/39 227/256/39 225/254/38
f 228/257/39 230/258/40 229/259/40 227/260/39
f 230/258/40 178/201/20 177/204/20 229/259/40
f 232/261/41 234/262/42 233/263/42 231/264/41
f 234/262/42 236/265/43 235/266/43 233/263/42
f 236/265/43 238/267/44 237/268/44 235/266/43
f 238/267/44 240/269/45 239/270/45 237/268/44
f 240/269/45 242/271/46 241/272/46 239/270/45
f 242/271/46 244/273/47 243/274/47 241/272/46
f 244/273/47 246/275/48 245/276/48 243/274/47
f 246/275/48 248/277/47 247/278/47 245/276/48
f 248/277/47 250/279/46 249/280/46 247/278/47
f 250/279/46 252/281/45 251/282/45 249/280/46
f 252/281/45 254/283/49 253/284/49 251/282/45
f 254/285/49 256/286/50 255/287/50 253/288/49
f 256/289/50 258/290/51 257/291/51 255/292/50
f 258/290/51 260/293/52 259/294/52 257/291/51
f 260/293/52 262/295/53 261/296/53 259/294/52
f 262/295/53 264/297/54 263/298/54 261/296/53
f 264/297/54 266/299/55 265/300/55 263/298/54
f 266/299/55 268/301/54 267/302/54 265/300/55
f 268/301/54 270/303/53 269/304/53 267/302/54
f 270/303/53 272/305/52 271/306/52 269/304/53
f 272/305/52 274/307/56 273/308/56 271/306/52
f 274/307/56 276/309/57 275/310/57 273/308/56
f 276/309/57 278/311/58 277/312/58 275/310/57
f 278/311/58 280/313/59 279/314/59 277/312/58
f 280/313/59 282/315/60 281/316/60 279/314/59
f 282/317/60 284/318/61 283/319/61 281/320/60
f 284/318/61 232/261/41 231/264/41 283/319/61
